<svg xmlns="http://www.w3.org/2000/svg" width="69" height="58" viewBox="0 0 69 58" fill="none"><metadata><rdf:RDF xmlns:rdf="http://www.w3.org/1999/02/22-rdf-syntax-ns#" xmlns:dc="http://purl.org/dc/elements/1.1/"><rdf:Description><dc:creator>RealFaviconGenerator</dc:creator><dc:source>https://realfavicongenerator.net</dc:source></rdf:Description></rdf:RDF></metadata><rect width="69" height="58" fill="black"></rect><path d="M34.7501 53.3332C18.8718 53.3332 6 42.5136 6 29.1665C6 15.8198 18.8718 5 34.7501 5C50.6281 5 63.5001 15.8198 63.5001 29.1665C63.5001 42.5136 50.6281 53.3332 34.7501 53.3332ZM31.8751 38.8332V43.6665H37.6251V38.8332H40.5001C44.4696 38.8332 47.6876 36.1285 47.6876 32.7915C47.6876 31.4314 47.1528 30.1765 46.2506 29.1665C47.1528 28.1569 47.6876 26.9016 47.6876 25.5415C47.6876 22.2049 44.4696 19.5 40.5001 19.5H37.6251V14.6667H31.8751V19.5H23.25V38.8332H31.8751ZM29.0001 31.5832H40.5001C41.2938 31.5832 41.9376 32.1243 41.9376 32.7915C41.9376 33.459 41.2938 33.9999 40.5001 33.9999H29.0001V31.5832ZM29.0001 24.3332H40.5001C41.2938 24.3332 41.9376 24.8743 41.9376 25.5415C41.9376 26.209 41.2938 26.7499 40.5001 26.7499H29.0001V24.3332Z" fill="white"></path></svg>